<svg id="svg" version="1.1" width="1000" height="441" xmlns="http://www.w3.org/2000/svg" xmlns:xlink="http://www.w3.org/1999/xlink" style="display: block;"><g id="svgg"><path id="path0" d="M214.400 7.999 C 207.919 10.033,206.317 10.423,204.480 10.412 C 200.735 10.391,195.116 14.978,194.437 18.612 C 194.251 19.611,193.797 20.761,193.430 21.167 C 193.062 21.573,192.589 22.532,192.377 23.298 C 192.166 24.064,191.458 25.480,190.804 26.445 C 190.057 27.547,189.610 28.721,189.604 29.600 C 189.598 30.370,189.150 31.900,188.609 33.000 C 188.068 34.100,187.619 35.231,187.613 35.513 C 187.606 35.796,187.150 36.915,186.600 38.000 C 186.050 39.085,185.598 40.204,185.595 40.487 C 185.592 40.769,185.052 42.060,184.395 43.356 C 182.715 46.668,183.284 48.393,185.884 47.872 C 189.567 47.134,191.200 46.357,191.200 45.343 C 191.200 42.574,195.393 37.507,197.374 37.882 C 202.564 38.865,207.773 44.430,205.371 46.424 C 203.923 47.626,203.200 49.886,203.200 53.210 C 203.200 60.034,198.591 61.857,198.001 55.267 L 197.800 53.015 195.806 52.683 C 193.848 52.356,190.028 53.126,189.020 54.051 C 188.454 54.570,174.514 54.489,173.528 53.961 C 173.077 53.720,170.428 53.398,167.642 53.246 C 163.847 53.039,162.332 52.798,161.600 52.285 C 161.062 51.908,160.276 51.600,159.852 51.600 C 158.911 51.600,154.933 49.030,153.700 47.625 C 152.179 45.891,152.420 42.860,154.222 41.058 C 156.367 38.913,156.497 37.217,154.660 35.380 L 153.218 33.938 151.569 34.866 C 149.677 35.929,147.200 38.509,147.200 39.417 C 147.200 39.755,146.840 40.738,146.400 41.600 C 145.871 42.637,145.600 43.958,145.600 45.499 C 145.600 53.979,139.718 55.717,137.572 47.871 C 137.342 47.029,136.804 45.719,136.377 44.958 C 135.260 42.971,135.260 36.629,136.377 34.642 C 136.804 33.881,137.353 32.516,137.598 31.609 C 137.842 30.701,138.302 29.859,138.621 29.737 C 138.939 29.614,139.200 29.270,139.200 28.972 C 139.200 28.207,143.898 23.274,145.333 22.531 C 145.988 22.192,146.891 21.574,147.338 21.157 C 148.758 19.834,158.400 20.234,158.400 21.616 C 158.400 21.774,158.927 22.121,159.572 22.388 C 160.979 22.971,165.371 27.448,165.770 28.706 C 165.926 29.198,166.181 29.600,166.336 29.600 C 166.687 29.600,167.757 31.627,168.656 34.000 C 169.546 36.345,169.848 43.228,169.154 45.335 C 168.512 47.285,168.988 48.119,170.921 48.433 C 174.841 49.071,176.000 47.305,176.000 40.692 C 176.000 35.379,176.651 33.600,178.596 33.600 C 179.223 33.600,180.057 32.608,181.235 30.463 C 182.494 28.170,181.846 27.600,177.977 27.600 C 174.507 27.600,172.556 26.246,170.650 22.514 C 169.673 20.600,165.964 16.528,163.454 14.614 C 161.567 13.174,159.035 12.694,152.399 12.517 C 145.987 12.346,147.034 12.074,141.244 15.417 C 139.807 16.247,135.200 20.453,135.200 20.934 C 135.200 21.091,134.582 22.118,133.827 23.216 C 132.548 25.074,131.200 28.653,131.200 30.188 C 131.200 30.553,130.985 31.246,130.723 31.726 C 127.819 37.040,129.793 51.172,134.258 57.038 C 134.776 57.719,135.204 58.439,135.209 58.638 C 135.214 58.837,136.654 60.430,138.409 62.177 C 141.914 65.667,141.871 65.551,141.640 71.000 C 141.478 74.802,142.405 86.479,142.974 87.800 C 143.258 88.460,143.715 89.990,143.989 91.200 C 144.495 93.429,147.303 99.699,148.288 100.800 C 148.583 101.130,149.561 102.521,150.459 103.890 C 154.862 110.598,164.422 118.121,169.730 119.056 C 170.429 119.178,171.990 119.661,173.200 120.127 C 176.128 121.255,182.511 121.319,185.200 120.247 C 186.190 119.852,188.080 119.356,189.400 119.144 C 192.351 118.670,198.492 115.249,202.221 112.000 C 203.610 110.790,205.253 109.416,205.873 108.946 C 206.493 108.477,207.537 107.037,208.193 105.746 C 209.330 103.509,211.503 99.990,212.432 98.881 C 212.671 98.596,213.019 97.876,213.205 97.281 C 213.392 96.687,214.110 94.850,214.803 93.200 C 215.495 91.550,216.314 88.760,216.624 87.000 C 217.421 82.474,218.004 80.017,218.669 78.384 C 219.621 76.046,219.205 66.875,218.008 63.800 C 217.320 62.034,217.085 60.660,217.116 58.600 C 217.159 55.785,216.668 52.658,215.892 50.800 C 215.480 49.813,215.147 48.102,214.454 43.400 C 213.647 37.933,206.695 30.400,202.456 30.400 C 201.037 30.400,198.796 27.715,198.832 26.060 C 198.894 23.275,202.569 18.913,204.926 18.827 C 205.326 18.812,206.046 18.581,206.526 18.314 C 207.007 18.046,208.750 17.697,210.400 17.537 C 213.501 17.237,216.974 16.587,217.627 16.183 C 218.390 15.712,218.053 10.535,217.160 9.023 C 216.292 7.551,216.080 7.472,214.400 7.999 M39.824 126.940 C 38.558 128.206,38.558 128.350,39.833 130.865 C 40.497 132.175,40.772 133.207,40.604 133.752 C 40.459 134.218,40.191 135.770,40.009 137.200 C 39.826 138.630,39.484 140.520,39.248 141.400 C 39.012 142.280,38.815 144.471,38.810 146.269 C 38.801 149.190,38.690 149.669,37.771 150.761 C 36.809 151.905,36.783 152.041,37.371 152.881 C 37.790 153.479,38.000 154.668,38.000 156.446 C 38.000 159.422,38.627 160.173,39.979 158.821 C 40.728 158.072,40.713 156.641,39.952 156.170 C 38.043 154.990,41.301 150.008,43.986 150.001 C 44.823 149.999,51.278 146.817,52.032 146.035 C 53.783 144.219,54.445 139.512,53.380 136.452 C 51.082 129.854,42.753 124.010,39.824 126.940 M133.000 126.380 C 129.767 127.184,124.088 131.788,122.292 135.062 C 121.269 136.927,121.385 139.682,122.545 141.069 C 123.065 141.691,123.603 142.561,123.742 143.003 C 123.880 143.445,124.726 144.255,125.622 144.803 C 127.376 145.876,130.400 149.900,130.400 151.161 C 130.400 152.570,127.729 154.892,126.436 154.608 C 124.629 154.211,121.000 156.390,121.000 157.871 C 121.000 160.239,126.516 159.352,128.783 156.620 C 129.373 155.909,131.466 154.893,134.119 154.029 C 135.829 153.472,136.605 153.835,137.232 155.484 C 137.766 156.888,141.078 156.810,142.430 155.361 C 144.052 153.623,146.378 152.606,147.093 153.322 C 147.716 153.945,147.716 153.946,146.243 158.654 C 145.889 159.783,145.600 161.168,145.600 161.730 C 145.600 162.293,145.420 162.864,145.200 163.000 C 144.980 163.136,144.800 164.101,144.800 165.144 C 144.800 166.187,144.639 167.211,144.442 167.420 C 143.880 168.017,143.565 170.143,143.950 170.741 C 144.963 172.316,146.485 169.345,148.428 162.000 C 148.689 161.010,149.150 159.633,149.452 158.940 C 149.753 158.246,150.000 157.498,150.000 157.277 C 150.000 156.476,151.805 153.518,152.531 153.130 C 153.454 152.636,155.197 154.094,155.206 155.370 C 155.228 158.295,158.024 158.157,161.077 155.080 C 163.604 152.532,163.682 152.499,164.684 153.550 C 165.461 154.364,167.043 154.998,168.000 154.878 C 168.827 154.775,169.332 155.208,169.905 156.511 C 170.879 158.727,172.652 158.451,175.810 155.591 C 178.677 152.995,180.379 153.028,181.327 155.700 C 181.603 156.480,184.554 156.721,185.000 156.000 C 185.677 154.905,188.000 155.885,188.000 157.266 C 188.000 160.421,193.915 157.219,196.180 152.838 C 197.420 150.440,198.801 150.471,199.413 152.909 C 200.051 155.453,203.395 156.426,205.445 154.663 C 206.763 153.529,206.527 152.400,204.973 152.400 C 202.529 152.400,200.639 148.174,201.974 145.695 C 202.180 145.313,202.824 143.599,203.404 141.887 C 203.985 140.175,204.716 138.285,205.028 137.687 C 205.340 137.089,205.596 136.253,205.598 135.828 C 205.600 134.990,206.287 132.618,206.849 131.505 C 207.823 129.578,206.163 128.132,204.630 129.572 C 203.229 130.888,200.400 137.098,200.400 138.858 C 200.400 139.676,197.328 142.901,195.750 143.738 C 195.118 144.074,192.629 146.340,190.219 148.774 C 187.809 151.208,185.726 153.200,185.589 153.200 C 184.868 153.200,183.507 151.071,183.315 149.643 L 183.096 148.007 181.554 148.254 C 178.676 148.714,179.942 145.204,183.100 143.971 C 184.317 143.496,184.274 142.155,183.032 141.844 C 181.687 141.506,180.880 141.895,178.808 143.881 C 177.821 144.826,176.826 145.600,176.596 145.600 C 176.367 145.600,174.928 146.860,173.400 148.400 C 170.000 151.826,168.000 152.116,168.000 149.182 C 168.000 148.045,166.918 146.800,165.930 146.800 C 165.265 146.800,164.000 148.025,164.000 148.669 C 164.000 149.169,160.177 153.200,159.703 153.200 C 158.371 153.200,157.913 149.500,158.979 147.361 C 159.298 146.723,159.681 145.435,159.830 144.500 C 160.318 141.452,159.547 141.980,153.689 148.710 L 152.200 150.420 151.038 149.410 C 150.302 148.771,149.393 148.400,148.561 148.400 C 146.139 148.400,146.569 146.569,149.325 145.146 C 151.032 144.264,151.207 143.087,149.664 142.868 C 148.863 142.754,144.574 144.550,144.000 145.240 C 143.815 145.462,141.152 147.268,139.635 148.200 C 139.276 148.420,138.419 149.005,137.730 149.500 C 135.949 150.779,135.331 150.634,134.068 148.643 C 132.914 146.823,131.639 145.177,129.146 142.286 C 124.924 137.391,124.901 132.514,129.103 133.078 C 132.637 133.552,137.755 128.551,135.669 126.662 C 134.876 125.945,134.788 125.936,133.000 126.380 M231.000 128.534 C 218.733 134.570,214.586 159.362,226.157 157.484 C 227.271 157.304,230.356 155.664,231.200 154.804 C 233.221 152.745,234.000 153.529,234.000 157.625 C 234.000 159.345,233.820 160.864,233.600 161.000 C 233.240 161.223,233.002 163.600,233.340 163.600 C 235.290 163.600,237.234 160.445,237.207 157.324 C 237.203 156.842,237.380 156.336,237.600 156.200 C 237.820 156.064,238.000 155.506,238.000 154.960 C 238.000 154.414,238.359 153.480,238.798 152.884 C 239.547 151.865,239.430 147.696,238.629 146.895 C 237.561 145.828,235.704 147.117,233.229 150.645 C 229.829 155.492,223.600 155.321,223.600 150.381 C 223.600 149.538,223.420 148.736,223.199 148.599 C 222.931 148.434,222.931 148.103,223.199 147.602 C 223.420 147.190,223.600 145.810,223.600 144.535 C 223.600 142.049,225.143 137.248,226.408 135.800 C 226.792 135.360,227.397 134.424,227.753 133.721 C 229.057 131.139,232.799 129.505,234.654 130.706 C 235.289 131.117,236.800 133.895,236.800 134.650 C 236.800 135.394,238.046 137.600,238.466 137.600 C 240.298 137.600,241.364 134.053,240.220 131.761 C 238.127 127.570,235.107 126.513,231.000 128.534 M46.860 132.700 C 47.416 133.305,48.174 134.467,48.546 135.283 C 48.917 136.099,49.397 136.874,49.611 137.007 C 49.825 137.139,50.000 138.625,50.000 140.308 C 50.000 143.553,47.957 146.800,45.917 146.800 C 45.523 146.800,45.200 146.991,45.200 147.224 C 45.200 147.470,44.568 147.596,43.700 147.524 L 42.200 147.400 42.321 145.200 C 42.388 143.990,42.613 142.829,42.821 142.620 C 43.029 142.411,43.200 141.387,43.200 140.344 C 43.200 139.301,43.380 138.336,43.600 138.200 C 43.820 138.064,44.000 136.523,44.000 134.776 C 44.000 131.130,44.851 130.512,46.860 132.700 M98.800 132.969 C 98.800 134.922,96.882 135.967,93.077 136.085 L 89.400 136.200 89.400 138.000 L 89.400 139.800 91.397 139.926 C 94.773 140.139,95.370 142.501,92.624 144.780 C 92.281 145.065,92.000 145.484,92.000 145.710 C 92.000 145.937,91.145 147.061,90.100 148.209 C 89.055 149.356,87.877 150.768,87.481 151.347 C 85.977 153.552,84.400 152.224,84.400 148.752 C 84.400 145.934,83.649 144.253,82.013 143.407 C 79.755 142.239,78.553 142.894,76.882 146.200 C 74.184 151.538,69.200 154.248,69.200 150.377 C 69.200 149.126,68.951 148.677,67.700 147.667 L 66.200 146.457 67.700 144.911 C 71.887 140.599,67.573 140.489,62.814 144.787 C 61.832 145.674,60.875 146.400,60.688 146.400 C 59.143 146.400,55.600 151.078,55.600 153.118 C 55.600 154.292,55.416 155.597,55.191 156.017 C 54.729 156.879,55.894 158.400,57.016 158.400 C 58.193 158.400,60.611 156.840,62.571 154.816 C 64.656 152.664,65.134 152.534,65.836 153.929 C 67.720 157.674,69.658 157.206,75.295 151.647 C 80.878 146.141,83.533 148.221,79.952 155.295 C 78.671 157.823,80.630 159.287,82.824 157.442 C 83.504 156.869,84.286 156.400,84.561 156.400 C 84.836 156.400,85.483 155.950,86.000 155.400 C 86.517 154.850,87.170 154.400,87.451 154.400 C 87.732 154.400,88.252 153.815,88.605 153.100 C 91.037 148.184,93.613 149.784,92.187 155.325 C 91.952 156.239,92.108 156.669,93.024 157.625 C 94.489 159.154,94.478 159.156,97.130 156.681 C 100.688 153.359,101.344 153.214,102.888 155.404 C 103.584 156.392,104.303 157.200,104.486 157.200 C 105.010 157.200,108.078 155.159,109.433 153.910 C 113.843 149.843,112.215 157.698,107.715 162.199 C 106.552 163.362,105.600 164.480,105.600 164.685 C 105.600 164.889,105.009 165.763,104.286 166.628 C 100.866 170.718,100.846 172.713,104.242 171.019 C 106.120 170.082,112.400 162.219,112.400 160.804 C 112.400 160.448,117.565 155.612,118.939 154.681 C 119.523 154.286,120.000 153.695,120.000 153.369 C 120.000 152.547,118.914 152.207,118.195 152.804 C 116.632 154.101,115.997 151.995,117.200 149.506 C 119.616 144.506,117.732 143.749,113.399 147.978 C 109.105 152.169,107.875 152.346,107.677 148.800 C 107.467 145.043,106.767 145.191,101.749 150.051 C 98.382 153.313,97.173 153.844,96.402 152.404 C 96.082 151.805,96.128 151.313,96.588 150.423 C 96.925 149.772,97.200 148.701,97.200 148.043 C 97.200 147.386,97.380 146.736,97.600 146.600 C 97.820 146.464,98.000 145.767,98.000 145.052 C 98.000 143.612,99.205 140.826,100.176 140.020 C 101.383 139.018,101.057 132.400,99.800 132.400 C 99.202 132.400,98.800 132.629,98.800 132.969 M245.765 142.119 C 243.533 144.400,242.400 146.481,242.400 148.298 C 242.400 148.968,242.055 149.788,241.600 150.200 C 240.425 151.263,240.575 151.683,243.008 154.156 C 246.719 157.927,248.931 157.388,254.991 151.238 C 258.148 148.034,259.285 147.445,260.320 148.480 C 260.858 149.018,260.972 151.635,260.482 152.220 C 257.670 155.582,259.242 159.996,262.327 157.400 C 262.981 156.850,263.665 156.400,263.848 156.400 C 264.031 156.400,265.489 155.100,267.088 153.512 C 270.481 150.142,271.937 150.156,270.817 153.548 C 269.419 157.784,270.463 157.655,275.231 153.006 C 279.807 148.544,281.319 147.917,280.611 150.776 C 280.471 151.339,280.196 152.520,280.000 153.400 C 279.804 154.280,279.522 155.495,279.375 156.100 C 278.884 158.112,280.451 157.368,283.800 154.000 C 287.526 150.252,287.997 150.152,290.400 152.600 C 291.372 153.590,292.501 154.400,292.910 154.400 C 294.123 154.400,295.200 155.171,295.200 156.040 C 295.200 159.424,297.793 158.998,302.118 154.903 C 304.444 152.702,306.000 152.580,306.000 154.600 C 306.000 157.473,309.651 156.927,313.056 153.544 C 317.103 149.524,317.811 149.998,316.580 155.904 C 316.272 157.379,316.872 158.400,318.045 158.400 C 318.456 158.400,320.509 156.692,322.607 154.603 C 326.877 150.354,327.123 150.303,328.811 153.305 C 329.290 154.157,330.106 155.048,330.624 155.284 C 331.567 155.713,331.770 155.631,334.230 153.818 C 335.014 153.241,336.661 154.300,337.401 155.858 C 338.263 157.675,339.936 157.135,343.433 153.910 C 347.785 149.896,346.257 157.651,341.786 162.268 C 340.584 163.509,339.600 164.676,339.600 164.861 C 339.600 165.046,339.007 165.873,338.282 166.699 C 335.630 169.718,334.982 171.600,336.593 171.600 C 338.474 171.600,341.529 168.724,344.199 164.440 C 344.418 164.088,345.003 163.227,345.499 162.527 C 345.995 161.826,346.400 161.101,346.400 160.915 C 346.400 160.427,351.342 155.600,351.841 155.600 C 352.594 155.600,354.111 153.665,353.863 153.020 C 353.582 152.287,352.747 152.213,352.097 152.863 C 351.125 153.835,349.808 151.608,350.747 150.580 C 351.671 149.569,352.470 146.479,352.024 145.644 C 351.328 144.345,350.897 144.563,347.376 148.000 C 342.882 152.386,341.600 152.376,341.600 147.955 C 341.600 144.862,340.883 144.987,337.028 148.749 C 335.196 150.537,333.527 152.000,333.319 152.000 C 332.625 152.000,331.290 150.218,331.017 148.928 C 330.413 146.069,328.314 145.926,325.638 148.563 L 323.747 150.425 322.994 149.594 C 322.283 148.808,322.277 148.667,322.883 147.032 C 323.580 145.150,323.275 143.900,321.911 143.048 C 321.328 142.684,320.385 143.446,315.820 147.965 C 309.929 153.798,309.200 154.102,309.200 150.725 C 309.200 148.711,308.681 147.757,307.411 147.438 C 305.952 147.072,306.153 146.082,308.084 144.114 C 312.232 139.888,306.950 140.822,302.121 145.168 C 294.939 151.632,293.987 152.142,292.960 150.074 C 291.501 147.136,289.770 146.334,287.662 147.619 C 285.959 148.657,285.200 148.134,285.200 145.925 C 285.200 142.126,283.582 141.851,280.305 145.094 C 277.789 147.584,276.739 147.684,276.473 145.460 C 276.077 142.143,271.648 145.018,266.470 151.954 C 265.047 153.859,262.506 153.243,263.572 151.252 C 264.637 149.262,264.110 146.557,262.281 144.620 C 259.576 141.757,258.453 142.073,256.175 146.336 C 253.700 150.969,248.643 154.021,246.686 152.063 C 245.646 151.024,246.040 149.943,248.377 147.421 C 253.195 142.220,250.673 137.101,245.765 142.119 " stroke="none" fill="#000000" fill-rule="evenodd"></path><path id="path1" d="M0.000 88.200 L 0.000 176.400 200.000 176.400 L 400.000 176.400 400.000 88.200 L 400.000 0.000 200.000 0.000 L 0.000 0.000 0.000 88.200 M217.160 9.023 C 218.053 10.535,218.390 15.712,217.627 16.183 C 216.974 16.587,213.501 17.237,210.400 17.537 C 208.750 17.697,207.007 18.046,206.526 18.314 C 206.046 18.581,205.326 18.812,204.926 18.827 C 202.569 18.913,198.894 23.275,198.832 26.060 C 198.796 27.715,201.037 30.400,202.456 30.400 C 206.695 30.400,213.647 37.933,214.454 43.400 C 215.147 48.102,215.480 49.813,215.892 50.800 C 216.668 52.658,217.159 55.785,217.116 58.600 C 217.085 60.660,217.320 62.034,218.008 63.800 C 219.205 66.875,219.621 76.046,218.669 78.384 C 218.004 80.017,217.421 82.474,216.624 87.000 C 216.314 88.760,215.495 91.550,214.803 93.200 C 214.110 94.850,213.392 96.687,213.205 97.281 C 213.019 97.876,212.671 98.596,212.432 98.881 C 211.503 99.990,209.330 103.509,208.193 105.746 C 207.537 107.037,206.493 108.477,205.873 108.946 C 205.253 109.416,203.610 110.790,202.221 112.000 C 198.492 115.249,192.351 118.670,189.400 119.144 C 188.080 119.356,186.190 119.852,185.200 120.247 C 182.511 121.319,176.128 121.255,173.200 120.127 C 171.990 119.661,170.429 119.178,169.730 119.056 C 164.422 118.121,154.862 110.598,150.459 103.890 C 149.561 102.521,148.583 101.130,148.288 100.800 C 147.303 99.699,144.495 93.429,143.989 91.200 C 143.715 89.990,143.258 88.460,142.974 87.800 C 142.405 86.479,141.478 74.802,141.640 71.000 C 141.871 65.551,141.914 65.667,138.409 62.177 C 136.654 60.430,135.214 58.837,135.209 58.638 C 135.204 58.439,134.776 57.719,134.258 57.038 C 129.793 51.172,127.819 37.040,130.723 31.726 C 130.985 31.246,131.200 30.553,131.200 30.188 C 131.200 28.653,132.548 25.074,133.827 23.216 C 134.582 22.118,135.200 21.091,135.200 20.934 C 135.200 20.453,139.807 16.247,141.244 15.417 C 147.034 12.074,145.987 12.346,152.399 12.517 C 159.035 12.694,161.567 13.174,163.454 14.614 C 165.964 16.528,169.673 20.600,170.650 22.514 C 172.556 26.246,174.507 27.600,177.977 27.600 C 181.846 27.600,182.494 28.170,181.235 30.463 C 180.057 32.608,179.223 33.600,178.596 33.600 C 176.651 33.600,176.000 35.379,176.000 40.692 C 176.000 47.305,174.841 49.071,170.921 48.433 C 168.988 48.119,168.512 47.285,169.154 45.335 C 169.848 43.228,169.546 36.345,168.656 34.000 C 167.757 31.627,166.687 29.600,166.336 29.600 C 166.181 29.600,165.926 29.198,165.770 28.706 C 165.371 27.448,160.979 22.971,159.572 22.388 C 158.927 22.121,158.400 21.774,158.400 21.616 C 158.400 20.234,148.758 19.834,147.338 21.157 C 146.891 21.574,145.988 22.192,145.333 22.531 C 143.898 23.274,139.200 28.207,139.200 28.972 C 139.200 29.270,138.939 29.614,138.621 29.737 C 138.302 29.859,137.842 30.701,137.598 31.609 C 137.353 32.516,136.804 33.881,136.377 34.642 C 135.260 36.629,135.260 42.971,136.377 44.958 C 136.804 45.719,137.342 47.029,137.572 47.871 C 139.718 55.717,145.600 53.979,145.600 45.499 C 145.600 43.958,145.871 42.637,146.400 41.600 C 146.840 40.738,147.200 39.755,147.200 39.417 C 147.200 38.509,149.677 35.929,151.569 34.866 L 153.218 33.938 154.660 35.380 C 156.497 37.217,156.367 38.913,154.222 41.058 C 152.420 42.860,152.179 45.891,153.700 47.625 C 154.933 49.030,158.911 51.600,159.852 51.600 C 160.276 51.600,161.062 51.908,161.600 52.285 C 162.332 52.798,163.847 53.039,167.642 53.246 C 170.428 53.398,173.077 53.720,173.528 53.961 C 174.514 54.489,188.454 54.570,189.020 54.051 C 190.028 53.126,193.848 52.356,195.806 52.683 L 197.800 53.015 198.001 55.267 C 198.591 61.857,203.200 60.034,203.200 53.210 C 203.200 49.886,203.923 47.626,205.371 46.424 C 207.773 44.430,202.564 38.865,197.374 37.882 C 195.393 37.507,191.200 42.574,191.200 45.343 C 191.200 46.357,189.567 47.134,185.884 47.872 C 183.284 48.393,182.715 46.668,184.395 43.356 C 185.052 42.060,185.592 40.769,185.595 40.487 C 185.598 40.204,186.050 39.085,186.600 38.000 C 187.150 36.915,187.606 35.796,187.613 35.513 C 187.619 35.231,188.068 34.100,188.609 33.000 C 189.150 31.900,189.598 30.370,189.604 29.600 C 189.610 28.721,190.057 27.547,190.804 26.445 C 191.458 25.480,192.166 24.064,192.377 23.298 C 192.589 22.532,193.062 21.573,193.430 21.167 C 193.797 20.761,194.251 19.611,194.437 18.612 C 195.116 14.978,200.735 10.391,204.480 10.412 C 206.317 10.423,207.919 10.033,214.400 7.999 C 216.080 7.472,216.292 7.551,217.160 9.023 M44.800 126.987 C 52.199 129.710,56.599 141.299,52.032 146.035 C 51.278 146.817,44.823 149.999,43.986 150.001 C 41.301 150.008,38.043 154.990,39.952 156.170 C 40.713 156.641,40.728 158.072,39.979 158.821 C 38.627 160.173,38.000 159.422,38.000 156.446 C 38.000 154.668,37.790 153.479,37.371 152.881 C 36.783 152.041,36.809 151.905,37.771 150.761 C 38.690 149.669,38.801 149.190,38.810 146.269 C 38.815 144.471,39.012 142.280,39.248 141.400 C 39.484 140.520,39.826 138.630,40.009 137.200 C 40.191 135.770,40.459 134.218,40.604 133.752 C 40.772 133.207,40.497 132.175,39.833 130.865 C 37.732 126.720,39.764 125.133,44.800 126.987 M135.669 126.662 C 137.755 128.551,132.637 133.552,129.103 133.078 C 124.901 132.514,124.924 137.391,129.146 142.286 C 131.639 145.177,132.914 146.823,134.068 148.643 C 135.331 150.634,135.949 150.779,137.730 149.500 C 138.419 149.005,139.276 148.420,139.635 148.200 C 141.152 147.268,143.815 145.462,144.000 145.240 C 144.574 144.550,148.863 142.754,149.664 142.868 C 151.207 143.087,151.032 144.264,149.325 145.146 C 146.569 146.569,146.139 148.400,148.561 148.400 C 149.393 148.400,150.302 148.771,151.038 149.410 L 152.200 150.420 153.689 148.710 C 159.547 141.980,160.318 141.452,159.830 144.500 C 159.681 145.435,159.298 146.723,158.979 147.361 C 157.913 149.500,158.371 153.200,159.703 153.200 C 160.177 153.200,164.000 149.169,164.000 148.669 C 164.000 148.025,165.265 146.800,165.930 146.800 C 166.918 146.800,168.000 148.045,168.000 149.182 C 168.000 152.116,170.000 151.826,173.400 148.400 C 174.928 146.860,176.367 145.600,176.596 145.600 C 176.826 145.600,177.821 144.826,178.808 143.881 C 180.880 141.895,181.687 141.506,183.032 141.844 C 184.274 142.155,184.317 143.496,183.100 143.971 C 179.942 145.204,178.676 148.714,181.554 148.254 L 183.096 148.007 183.315 149.643 C 183.507 151.071,184.868 153.200,185.589 153.200 C 185.726 153.200,187.809 151.208,190.219 148.774 C 192.629 146.340,195.118 144.074,195.750 143.738 C 197.328 142.901,200.400 139.676,200.400 138.858 C 200.400 137.098,203.229 130.888,204.630 129.572 C 206.163 128.132,207.823 129.578,206.849 131.505 C 206.287 132.618,205.600 134.990,205.598 135.828 C 205.596 136.253,205.340 137.089,205.028 137.687 C 204.716 138.285,203.985 140.175,203.404 141.887 C 202.824 143.599,202.180 145.313,201.974 145.695 C 200.639 148.174,202.529 152.400,204.973 152.400 C 206.527 152.400,206.763 153.529,205.445 154.663 C 203.395 156.426,200.051 155.453,199.413 152.909 C 198.801 150.471,197.420 150.440,196.180 152.838 C 193.915 157.219,188.000 160.421,188.000 157.266 C 188.000 155.885,185.677 154.905,185.000 156.000 C 184.554 156.721,181.603 156.480,181.327 155.700 C 180.379 153.028,178.677 152.995,175.810 155.591 C 172.652 158.451,170.879 158.727,169.905 156.511 C 169.332 155.208,168.827 154.775,168.000 154.878 C 167.043 154.998,165.461 154.364,164.684 153.550 C 163.682 152.499,163.604 152.532,161.077 155.080 C 158.024 158.157,155.228 158.295,155.206 155.370 C 155.197 154.094,153.454 152.636,152.531 153.130 C 151.805 153.518,150.000 156.476,150.000 157.277 C 150.000 157.498,149.753 158.246,149.452 158.940 C 149.150 159.633,148.689 161.010,148.428 162.000 C 146.485 169.345,144.963 172.316,143.950 170.741 C 143.565 170.143,143.880 168.017,144.442 167.420 C 144.639 167.211,144.800 166.187,144.800 165.144 C 144.800 164.101,144.980 163.136,145.200 163.000 C 145.420 162.864,145.600 162.293,145.600 161.730 C 145.600 161.168,145.889 159.783,146.243 158.654 C 147.716 153.946,147.716 153.945,147.093 153.322 C 146.378 152.606,144.052 153.623,142.430 155.361 C 141.078 156.810,137.766 156.888,137.232 155.484 C 136.605 153.835,135.829 153.472,134.119 154.029 C 131.466 154.893,129.373 155.909,128.783 156.620 C 126.516 159.352,121.000 160.239,121.000 157.871 C 121.000 156.390,124.629 154.211,126.436 154.608 C 127.729 154.892,130.400 152.570,130.400 151.161 C 130.400 149.900,127.376 145.876,125.622 144.803 C 124.726 144.255,123.880 143.445,123.742 143.003 C 123.603 142.561,123.065 141.691,122.545 141.069 C 119.034 136.869,127.027 126.879,134.569 126.041 C 134.771 126.018,135.266 126.298,135.669 126.662 M238.089 129.086 C 241.001 131.928,241.666 134.906,239.779 136.654 C 238.394 137.938,236.800 136.866,236.800 134.650 C 236.800 133.895,235.289 131.117,234.654 130.706 C 232.799 129.505,229.057 131.139,227.753 133.721 C 227.397 134.424,226.792 135.360,226.408 135.800 C 225.143 137.248,223.600 142.049,223.600 144.535 C 223.600 145.810,223.420 147.190,223.199 147.602 C 222.931 148.103,222.931 148.434,223.199 148.599 C 223.420 148.736,223.600 149.538,223.600 150.381 C 223.600 155.321,229.829 155.492,233.229 150.645 C 235.704 147.117,237.561 145.828,238.629 146.895 C 239.430 147.696,239.547 151.865,238.798 152.884 C 238.359 153.480,238.000 154.414,238.000 154.960 C 238.000 155.506,237.820 156.064,237.600 156.200 C 237.380 156.336,237.203 156.842,237.207 157.324 C 237.234 160.445,235.290 163.600,233.340 163.600 C 233.002 163.600,233.240 161.223,233.600 161.000 C 233.820 160.864,234.000 159.345,234.000 157.625 C 234.000 153.529,233.221 152.745,231.200 154.804 C 227.864 158.203,222.376 158.259,220.403 154.916 C 219.460 153.317,219.408 146.183,220.311 142.388 C 222.738 132.197,233.231 124.345,238.089 129.086 M44.000 134.776 C 44.000 136.523,43.820 138.064,43.600 138.200 C 43.380 138.336,43.200 139.301,43.200 140.344 C 43.200 141.387,43.029 142.411,42.821 142.620 C 42.613 142.829,42.388 143.990,42.321 145.200 L 42.200 147.400 43.700 147.524 C 44.568 147.596,45.200 147.470,45.200 147.224 C 45.200 146.991,45.523 146.800,45.917 146.800 C 47.957 146.800,50.000 143.553,50.000 140.308 C 50.000 138.625,49.825 137.139,49.611 137.007 C 49.397 136.874,48.917 136.099,48.546 135.283 C 46.385 130.541,44.000 130.275,44.000 134.776 M100.800 135.951 C 100.800 138.680,100.656 139.622,100.176 140.020 C 99.205 140.826,98.000 143.612,98.000 145.052 C 98.000 145.767,97.820 146.464,97.600 146.600 C 97.380 146.736,97.200 147.386,97.200 148.043 C 97.200 148.701,96.925 149.772,96.588 150.423 C 96.128 151.313,96.082 151.805,96.402 152.404 C 97.173 153.844,98.382 153.313,101.749 150.051 C 106.767 145.191,107.467 145.043,107.677 148.800 C 107.875 152.346,109.105 152.169,113.399 147.978 C 117.732 143.749,119.616 144.506,117.200 149.506 C 115.997 151.995,116.632 154.101,118.195 152.804 C 118.914 152.207,120.000 152.547,120.000 153.369 C 120.000 153.695,119.523 154.286,118.939 154.681 C 117.565 155.612,112.400 160.448,112.400 160.804 C 112.400 162.219,106.120 170.082,104.242 171.019 C 100.846 172.713,100.866 170.718,104.286 166.628 C 105.009 165.763,105.600 164.889,105.600 164.685 C 105.600 164.480,106.552 163.362,107.715 162.199 C 112.215 157.698,113.843 149.843,109.433 153.910 C 108.078 155.159,105.010 157.200,104.486 157.200 C 104.303 157.200,103.584 156.392,102.888 155.404 C 101.344 153.214,100.688 153.359,97.130 156.681 C 94.478 159.156,94.489 159.154,93.024 157.625 C 92.108 156.669,91.952 156.239,92.187 155.325 C 93.613 149.784,91.037 148.184,88.605 153.100 C 88.252 153.815,87.732 154.400,87.451 154.400 C 87.170 154.400,86.517 154.850,86.000 155.400 C 85.483 155.950,84.836 156.400,84.561 156.400 C 84.286 156.400,83.504 156.869,82.824 157.442 C 80.630 159.287,78.671 157.823,79.952 155.295 C 83.533 148.221,80.878 146.141,75.295 151.647 C 69.658 157.206,67.720 157.674,65.836 153.929 C 65.134 152.534,64.656 152.664,62.571 154.816 C 60.611 156.840,58.193 158.400,57.016 158.400 C 55.894 158.400,54.729 156.879,55.191 156.017 C 55.416 155.597,55.600 154.292,55.600 153.118 C 55.600 151.078,59.143 146.400,60.688 146.400 C 60.875 146.400,61.832 145.674,62.814 144.787 C 67.573 140.489,71.887 140.599,67.700 144.911 L 66.200 146.457 67.700 147.667 C 68.951 148.677,69.200 149.126,69.200 150.377 C 69.200 154.248,74.184 151.538,76.882 146.200 C 78.553 142.894,79.755 142.239,82.013 143.407 C 83.649 144.253,84.400 145.934,84.400 148.752 C 84.400 152.224,85.977 153.552,87.481 151.347 C 87.877 150.768,89.055 149.356,90.100 148.209 C 91.145 147.061,92.000 145.937,92.000 145.710 C 92.000 145.484,92.281 145.065,92.624 144.780 C 95.370 142.501,94.773 140.139,91.397 139.926 L 89.400 139.800 89.400 138.000 L 89.400 136.200 93.077 136.085 C 96.882 135.967,98.800 134.922,98.800 132.969 C 98.800 132.629,99.202 132.400,99.800 132.400 C 100.792 132.400,100.800 132.430,100.800 135.951 M250.570 141.142 C 251.426 142.796,250.677 144.938,248.377 147.421 C 246.040 149.943,245.646 151.024,246.686 152.063 C 248.643 154.021,253.700 150.969,256.175 146.336 C 258.453 142.073,259.576 141.757,262.281 144.620 C 264.110 146.557,264.637 149.262,263.572 151.252 C 262.506 153.243,265.047 153.859,266.470 151.954 C 271.648 145.018,276.077 142.143,276.473 145.460 C 276.739 147.684,277.789 147.584,280.305 145.094 C 283.582 141.851,285.200 142.126,285.200 145.925 C 285.200 148.134,285.959 148.657,287.662 147.619 C 289.770 146.334,291.501 147.136,292.960 150.074 C 293.987 152.142,294.939 151.632,302.121 145.168 C 306.950 140.822,312.232 139.888,308.084 144.114 C 306.153 146.082,305.952 147.072,307.411 147.438 C 308.681 147.757,309.200 148.711,309.200 150.725 C 309.200 154.102,309.929 153.798,315.820 147.965 C 320.385 143.446,321.328 142.684,321.911 143.048 C 323.275 143.900,323.580 145.150,322.883 147.032 C 322.277 148.667,322.283 148.808,322.994 149.594 L 323.747 150.425 325.638 148.563 C 328.314 145.926,330.413 146.069,331.017 148.928 C 331.290 150.218,332.625 152.000,333.319 152.000 C 333.527 152.000,335.196 150.537,337.028 148.749 C 340.883 144.987,341.600 144.862,341.600 147.955 C 341.600 152.376,342.882 152.386,347.376 148.000 C 350.897 144.563,351.328 144.345,352.024 145.644 C 352.470 146.479,351.671 149.569,350.747 150.580 C 349.808 151.608,351.125 153.835,352.097 152.863 C 352.747 152.213,353.582 152.287,353.863 153.020 C 354.111 153.665,352.594 155.600,351.841 155.600 C 351.342 155.600,346.400 160.427,346.400 160.915 C 346.400 161.101,345.995 161.826,345.499 162.527 C 345.003 163.227,344.418 164.088,344.199 164.440 C 341.529 168.724,338.474 171.600,336.593 171.600 C 334.982 171.600,335.630 169.718,338.282 166.699 C 339.007 165.873,339.600 165.046,339.600 164.861 C 339.600 164.676,340.584 163.509,341.786 162.268 C 346.257 157.651,347.785 149.896,343.433 153.910 C 339.936 157.135,338.263 157.675,337.401 155.858 C 336.661 154.300,335.014 153.241,334.230 153.818 C 331.770 155.631,331.567 155.713,330.624 155.284 C 330.106 155.048,329.290 154.157,328.811 153.305 C 327.123 150.303,326.877 150.354,322.607 154.603 C 320.509 156.692,318.456 158.400,318.045 158.400 C 316.872 158.400,316.272 157.379,316.580 155.904 C 317.811 149.998,317.103 149.524,313.056 153.544 C 309.651 156.927,306.000 157.473,306.000 154.600 C 306.000 152.580,304.444 152.702,302.118 154.903 C 297.793 158.998,295.200 159.424,295.200 156.040 C 295.200 155.171,294.123 154.400,292.910 154.400 C 292.501 154.400,291.372 153.590,290.400 152.600 C 287.997 150.152,287.526 150.252,283.800 154.000 C 280.451 157.368,278.884 158.112,279.375 156.100 C 279.522 155.495,279.804 154.280,280.000 153.400 C 280.196 152.520,280.471 151.339,280.611 150.776 C 281.319 147.917,279.807 148.544,275.231 153.006 C 270.463 157.655,269.419 157.784,270.817 153.548 C 271.937 150.156,270.481 150.142,267.088 153.512 C 265.489 155.100,264.031 156.400,263.848 156.400 C 263.665 156.400,262.981 156.850,262.327 157.400 C 259.242 159.996,257.670 155.582,260.482 152.220 C 260.972 151.635,260.858 149.018,260.320 148.480 C 259.285 147.445,258.148 148.034,254.991 151.238 C 248.931 157.388,246.719 157.927,243.008 154.156 C 240.575 151.683,240.425 151.263,241.600 150.200 C 242.055 149.788,242.400 148.968,242.400 148.298 C 242.400 143.790,248.966 138.039,250.570 141.142 " stroke="none" fill="#ffffff" fill-rule="evenodd"></path></g></svg>