<?xml version="1.0" standalone="no"?>
<!DOCTYPE svg PUBLIC "-//W3C//DTD SVG 20010904//EN"
 "http://www.w3.org/TR/2001/REC-SVG-20010904/DTD/svg10.dtd">
<svg version="1.0" xmlns="http://www.w3.org/2000/svg"
 width="800.000000pt" height="600.000000pt" viewBox="0 0 800.000000 600.000000"
 preserveAspectRatio="xMidYMid meet">

<g transform="translate(0.000000,600.000000) scale(0.100000,-0.100000)"
fill="#000000" stroke="none">
<path d="M0 3000 l0 -3000 4000 0 4000 0 0 3000 0 3000 -4000 0 -4000 0 0
-3000z m4534 1064 c3 -9 6 -29 6 -44 0 -31 -17 -39 -115 -55 -53 -8 -75 -26
-81 -67 -6 -34 -4 -35 47 -61 76 -38 102 -80 123 -197 9 -52 21 -117 26 -143
18 -90 5 -206 -36 -312 -53 -136 -162 -241 -290 -280 -63 -19 -93 -19 -162 1
-95 28 -152 72 -229 174 -62 84 -84 155 -92 291 l-6 116 -37 41 c-61 68 -80
116 -81 202 -2 131 49 227 149 286 40 24 53 26 110 21 77 -6 115 -29 165 -98
34 -48 78 -73 116 -67 13 2 17 -2 15 -17 -5 -25 -31 -55 -49 -55 -9 0 -13 -16
-13 -58 0 -71 -15 -95 -55 -90 -30 3 -30 3 -27 60 4 66 -11 119 -46 166 -76
100 -212 78 -268 -41 -28 -61 -30 -111 -7 -169 31 -79 57 -78 72 3 12 69 29
101 67 126 25 16 27 16 40 -2 18 -25 18 -54 -1 -61 -9 -4 -15 -19 -15 -38 0
-29 6 -36 50 -60 47 -26 56 -27 197 -28 82 0 164 1 183 3 33 4 35 2 38 -29 3
-25 8 -32 20 -30 12 2 19 17 22 51 3 26 11 52 18 59 33 33 -2 81 -68 94 -28 6
-31 3 -50 -40 -20 -48 -27 -54 -70 -58 -29 -3 -38 22 -21 58 6 13 16 36 22 52
6 15 15 35 20 44 5 10 9 23 9 30 0 6 9 30 19 52 10 23 27 57 36 78 19 41 79
88 116 89 13 0 33 4 44 9 34 15 82 11 89 -6z m-1783 -1237 c43 -29 79 -82 79
-118 0 -55 -16 -76 -85 -108 -62 -30 -66 -33 -63 -64 1 -18 -2 -38 -6 -45 -13
-21 -26 -2 -26 39 0 22 -5 39 -11 39 -8 0 -8 4 0 13 6 8 16 49 22 93 6 43 13
82 15 86 2 3 -1 18 -7 32 -26 55 21 74 82 33z m926 6 c4 -11 -4 -25 -27 -45
-39 -32 -55 -36 -46 -12 5 14 4 15 -8 5 -32 -27 -29 -50 13 -104 22 -29 44
-62 48 -74 8 -21 9 -21 65 17 94 65 153 66 63 1 -25 -18 -45 -36 -45 -42 0
-14 9 -11 47 18 33 25 37 26 47 10 10 -15 15 -12 47 26 20 23 40 39 43 36 4
-4 1 -27 -6 -52 -6 -26 -8 -50 -4 -54 4 -4 23 10 41 31 33 39 55 42 55 5 0
-23 23 -25 41 -2 20 23 109 93 120 93 18 0 8 -29 -18 -52 -16 -13 -39 -37 -53
-53 -25 -28 -24 -28 17 4 44 33 63 34 63 1 0 -35 15 -29 75 31 33 32 63 59 67
59 5 0 22 32 39 70 18 39 38 70 45 70 19 0 18 -7 -17 -112 -25 -75 -28 -97
-19 -116 6 -15 16 -22 25 -18 19 7 20 -18 1 -33 -19 -16 -52 1 -61 29 -6 18
-11 16 -49 -27 -43 -47 -66 -51 -66 -12 0 16 -3 18 -19 9 -30 -16 -52 -12 -58
10 -5 18 -7 18 -41 -10 -43 -35 -72 -39 -72 -10 0 13 -5 18 -15 13 -9 -3 -24
2 -34 11 -16 15 -19 14 -41 -9 -33 -35 -58 -32 -68 7 l-8 33 -18 -27 c-10 -16
-30 -63 -45 -105 -35 -104 -54 -108 -30 -6 10 43 18 88 19 101 l0 22 -39 -26
c-42 -27 -66 -24 -58 7 5 20 -7 26 -18 9 -3 -5 -13 -10 -21 -10 -8 0 -32 -11
-52 -25 -38 -26 -76 -32 -87 -15 -7 11 52 50 76 50 34 0 28 30 -16 82 -70 81
-57 135 45 189 44 23 49 23 57 2z m1067 -19 c23 -22 30 -62 16 -79 -15 -18
-30 -11 -30 14 0 10 -9 26 -20 36 -30 27 -62 7 -94 -56 -40 -80 -33 -179 13
-179 10 0 37 20 60 45 24 26 48 44 55 42 24 -8 -14 -176 -43 -185 -11 -4 -12
6 -7 52 4 31 5 56 2 56 -3 0 -22 -11 -42 -25 -44 -30 -55 -31 -85 -6 -20 16
-24 28 -23 68 2 83 22 134 74 185 51 52 94 63 124 32z m-1434 -73 c0 -22 -4
-43 -10 -46 -5 -3 -14 -23 -19 -43 -27 -110 -24 -114 44 -51 49 45 68 45 55
-1 -5 -17 -6 -30 -4 -30 3 0 28 19 55 42 27 22 52 38 56 35 3 -4 1 -24 -5 -46
-16 -50 -15 -56 3 -41 9 7 19 10 23 6 3 -4 -10 -22 -29 -39 -20 -18 -47 -48
-59 -67 -33 -50 -72 -90 -87 -90 -22 0 -15 17 30 72 44 56 67 98 67 125 0 12
-9 8 -34 -16 -37 -36 -62 -36 -68 0 -3 20 -5 19 -43 -15 -21 -20 -44 -35 -50
-33 -5 2 -9 26 -7 52 2 44 1 47 -15 34 -10 -8 -23 -21 -30 -29 -14 -19 -81
-55 -89 -48 -3 3 0 25 6 48 18 68 -1 73 -58 17 -51 -51 -86 -60 -97 -27 -6 20
-8 19 -42 -10 -45 -40 -69 -36 -65 10 2 26 13 45 45 74 57 52 84 69 98 61 7
-5 -10 -29 -48 -67 -32 -33 -49 -56 -38 -50 11 6 29 20 39 31 26 28 46 27 46
-3 0 -14 4 -27 8 -30 11 -6 60 43 76 76 6 13 21 24 33 26 29 4 47 -31 40 -81
l-5 -39 30 28 c35 33 88 103 88 116 0 4 -13 8 -30 8 -23 0 -30 4 -30 20 0 17
7 20 40 20 29 0 43 5 52 20 19 30 28 24 28 -19z m1564 -58 c5 -11 -4 -33 -23
-59 -31 -45 -31 -54 4 -54 22 0 48 24 78 73 35 56 84 19 74 -56 l-5 -40 57 57
c31 31 62 56 69 56 7 0 12 -12 12 -27 l0 -27 33 32 c44 43 60 42 55 -3 -4 -38
2 -44 22 -20 18 22 37 18 56 -10 9 -14 19 -25 23 -25 4 0 21 13 39 30 63 57
103 83 112 74 6 -6 -9 -28 -40 -59 -28 -27 -50 -54 -50 -59 0 -5 15 4 33 22
39 38 57 41 57 8 0 -41 14 -37 70 19 64 64 85 71 77 23 -3 -18 -9 -42 -13 -53
-5 -14 2 -10 23 13 37 38 59 41 75 7 15 -33 25 -32 64 6 38 37 56 32 44 -11
-5 -17 -6 -30 -4 -30 3 0 28 19 55 42 27 22 52 38 56 35 3 -4 1 -24 -5 -46
-16 -50 -15 -56 3 -41 9 7 19 10 22 6 4 -4 -11 -24 -34 -44 -22 -20 -51 -54
-63 -74 -30 -53 -90 -98 -90 -68 0 5 19 33 43 62 44 56 67 98 67 125 0 12 -9
8 -34 -16 -37 -36 -66 -37 -66 -2 0 19 -1 19 -31 3 -29 -17 -31 -16 -49 6 -10
12 -21 22 -25 22 -4 0 -28 -19 -54 -42 -50 -47 -61 -40 -42 26 12 45 4 45 -39
1 -36 -37 -67 -45 -76 -20 -8 21 -22 19 -56 -10 -36 -30 -58 -32 -58 -5 0 12
-7 20 -17 20 -9 0 -27 10 -40 22 l-24 23 -41 -45 c-45 -48 -55 -43 -39 16 6
21 8 40 5 43 -4 3 -25 -15 -48 -41 -23 -27 -46 -48 -50 -48 -4 0 -5 19 -1 43
l7 42 -34 -35 c-37 -38 -84 -67 -94 -58 -3 3 0 25 6 48 18 67 0 72 -59 17 -55
-52 -82 -58 -120 -26 -21 17 -23 23 -13 40 7 10 12 24 12 30 0 6 9 27 21 45
22 37 53 45 63 17z"/>
<path d="M2711 2784 c10 -12 10 -25 1 -62 -6 -26 -14 -64 -18 -85 l-7 -39 40
20 c22 11 45 28 52 36 20 24 6 75 -31 113 -32 33 -62 47 -37 17z"/>
<path d="M4291 2608 c-30 -40 -40 -65 -23 -54 15 9 65 86 60 92 -3 3 -20 -14
-37 -38z"/>
<path d="M4827 2643 c-4 -3 -7 -11 -7 -17 0 -6 5 -5 12 2 6 6 9 14 7 17 -3 3
-9 2 -12 -2z"/>
</g>
</svg>
